<svg id="Capa_2" data-name="Capa 2" xmlns="http://www.w3.org/2000/svg" viewBox="0 0 100 100"><rect width="100" height="100" rx="8" fill="#fff"/><path d="M73,21.05c-.19,2.45-.33,4.8-.4,7.06s-.11,4-.11,5.2c0,1,0,2.06.08,3s.09,1.78.14,2.46H71.09a37.57,37.57,0,0,0-2.92-9.59,11.77,11.77,0,0,0-4.22-5,11,11,0,0,0-5.77-1.47H56.53V63.88a11.63,11.63,0,0,0,.61,4.33,3.27,3.27,0,0,0,2.27,1.91,20.91,20.91,0,0,0,4.83.54V72.1c-1.49,0-3.47-.09-5.95-.14s-5.06-.08-7.75-.08-5.14,0-7.5.08-4.25.09-5.7.14V70.66a21.28,21.28,0,0,0,4.91-.54,3.16,3.16,0,0,0,2.23-1.91,12.18,12.18,0,0,0,.58-4.33V22.71H43.47a11,11,0,0,0-5.76,1.47,11.63,11.63,0,0,0-4.19,5,42.27,42.27,0,0,0-3,9.63H28.84c.09-.68.15-1.49.18-2.46s0-2,0-3c0-1.21,0-2.94-.11-5.2s-.2-4.61-.39-7.06l7.24.14c2.62,0,5.26.07,7.9.07H58c2.62,0,5.26,0,7.9-.07Z" fill="#10b981"/></svg>